<svg id="Capa_1" data-name="Capa 1" xmlns="http://www.w3.org/2000/svg" viewBox="0 0 215.85 78.9"><defs><style>.cls-1{fill:#38385c;}</style></defs><title>logo_iie</title><path class="cls-1" d="M57.61,22.68A36.78,36.78,0,0,1,64.55,40.3H36.92C39,30.16,46.65,22.68,57.61,22.68"/><path class="cls-1" d="M55,69.64a36.83,36.83,0,0,0,9.73-23H36.32C36.5,58.58,43.64,68.33,55,69.63"/><path class="cls-1" d="M51.34,16.05a37.17,37.17,0,0,1,6.27,6.62h0A23.56,23.56,0,0,1,80.41,40.3H64.55a37.33,37.33,0,0,1,.24,4.28q0,1.06-.06,2.1H88.38q0-.23,0-.45a30.8,30.8,0,0,0-37-30.14"/><path class="cls-1" d="M55,69.63a23,23,0,0,0,2.62.15,23.55,23.55,0,0,0,21.52-14l6.52,3.11A30.82,30.82,0,0,1,48.1,75.5h0A37.17,37.17,0,0,0,55,69.64"/><path class="cls-1" d="M29.93,6A5.82,5.82,0,1,1,24.11.23,5.82,5.82,0,0,1,29.93,6"/><path class="cls-1" d="M10.1,76.17H2.31A43.6,43.6,0,0,0,4.39,62.25C4.39,46.07.12,45.11.12,29c0-8.33,2.19-13,2.19-13H10.1A37.33,37.33,0,0,0,7.68,29.79c0,12,4.71,18.42,4.71,33.56a34.24,34.24,0,0,1-2.3,12.83"/><path class="cls-1" d="M12.72,6A5.82,5.82,0,1,1,6.9.23,5.82,5.82,0,0,1,12.72,6"/><path class="cls-1" d="M91.1,9.15a5.82,5.82,0,1,1-5.82-5.82A5.82,5.82,0,0,1,91.1,9.15"/><path class="cls-1" d="M94.25,20.13a3.49,3.49,0,1,1-3.49-3.49,3.49,3.49,0,0,1,3.49,3.49"/><path class="cls-1" d="M96.64,13.5a1.73,1.73,0,1,1-1.73-1.73,1.73,1.73,0,0,1,1.73,1.73"/><path class="cls-1" d="M81.18,1.12A1.73,1.73,0,1,1,79.46-.6a1.73,1.73,0,0,1,1.73,1.73"/><path class="cls-1" d="M76.54,6a3.59,3.59,0,1,1-3.59-3.59A3.59,3.59,0,0,1,76.54,6"/><rect class="cls-1" x="108.49" y="19.04" width="1.54" height="15.39"/><path class="cls-1" d="M121.52,34.43V28.17a4.35,4.35,0,0,0-1.08-3.12,3.62,3.62,0,0,0-5,0,4.21,4.21,0,0,0-1.06,3v6.36H113V23.05h1.45v1.46h0A4.13,4.13,0,0,1,118,22.76c3.27,0,5,2.27,5,5.41v6.26Z"/><path class="cls-1" d="M128.3,34.7a3.38,3.38,0,0,1-3.5-3.52v-.12h1.46c0,1.31.64,2.33,2,2.33a1.91,1.91,0,0,0,2.12-2c0-3-5.28-1.62-5.28-5.43a3.09,3.09,0,0,1,3.24-3.16,3.05,3.05,0,0,1,3.1,3.1H130a1.73,1.73,0,0,0-1.71-1.79,1.68,1.68,0,0,0-1.73,1.71c0,2.6,5.28,1.25,5.28,5.45a3.28,3.28,0,0,1-3.58,3.47"/><polygon class="cls-1" points="136.51 24.36 136.51 34.43 135.06 34.43 135.06 24.36 132.67 24.36 132.67 23.05 135.06 23.05 135.06 19.04 136.51 19.04 136.51 23.05 139.24 23.05 139.24 24.36 136.51 24.36"/><path class="cls-1" d="M140.78,19h1.46v2.62h-1.46Zm0,4h1.46V34.43h-1.46Z"/><polygon class="cls-1" points="147.73 24.36 147.73 34.43 146.27 34.43 146.27 24.36 143.88 24.36 143.88 23.05 146.27 23.05 146.27 19.04 147.73 19.04 147.73 23.05 150.45 23.05 150.45 24.36 147.73 24.36"/><path class="cls-1" d="M160.52,34.43V32.67h0a3.88,3.88,0,0,1-3.64,2A4.9,4.9,0,0,1,152.93,33a5.82,5.82,0,0,1-1-3.66V23.05h1.46v6.26c0,2.35.85,4.08,3.45,4.08a3.25,3.25,0,0,0,2.41-.92,4.28,4.28,0,0,0,1.19-3.41v-6h1.46V34.43Z"/><polygon class="cls-1" points="167.43 24.36 167.43 34.43 165.97 34.43 165.97 24.36 163.58 24.36 163.58 23.05 165.97 23.05 165.97 19.04 167.43 19.04 167.43 23.05 170.15 23.05 170.15 24.36 167.43 24.36"/><path class="cls-1" d="M177.14,34.7a6,6,0,1,1,6-6,6,6,0,0,1-6,6m0-10.63a4.66,4.66,0,0,0,0,9.32,4.66,4.66,0,0,0,0-9.32"/><rect class="cls-1" x="108.49" y="38.78" width="1.54" height="15.39"/><path class="cls-1" d="M121.52,54.17V47.91a4.35,4.35,0,0,0-1.08-3.12,3.62,3.62,0,0,0-5,0,4.21,4.21,0,0,0-1.06,3v6.36H113V42.79h1.45v1.46h0A4.13,4.13,0,0,1,118,42.5c3.27,0,5,2.27,5,5.41v6.26Z"/><path class="cls-1" d="M135.87,56.54a5.7,5.7,0,0,1-4.51,2.1,5.76,5.76,0,0,1-5.82-4.18h1.54a4.39,4.39,0,0,0,4.26,2.87,3.91,3.91,0,0,0,4.12-4.24v-1h0A4.89,4.89,0,0,1,131,54.44a5.9,5.9,0,0,1-6-5.91,6,6,0,0,1,6-6,5.11,5.11,0,0,1,4.39,2.33h0v-2h1.46v9.59a6.51,6.51,0,0,1-1,4.16M131,43.81a4.66,4.66,0,1,0,4.51,4.68A4.58,4.58,0,0,0,131,43.81"/><path class="cls-1" d="M151,49H140.59A4.51,4.51,0,0,0,145,53.13a4.3,4.3,0,0,0,4.08-2.68h1.54A5.94,5.94,0,1,1,145,42.5a6.06,6.06,0,0,1,6,6.09c0,.15,0,.27,0,.42M145,43.81a4.5,4.5,0,0,0-4.43,3.89h8.88A4.52,4.52,0,0,0,145,43.81"/><path class="cls-1" d="M161.73,54.17V47.91a4.35,4.35,0,0,0-1.08-3.12,3.62,3.62,0,0,0-5,0,4.21,4.21,0,0,0-1.06,3v6.36h-1.45V42.79h1.45v1.46h0a4.13,4.13,0,0,1,3.49-1.75c3.27,0,5,2.27,5,5.41v6.26Z"/><path class="cls-1" d="M165.87,38.78h1.46V41.4h-1.46Zm0,4h1.46V54.17h-1.46Z"/><path class="cls-1" d="M181.32,49H171a4.51,4.51,0,0,0,4.41,4.12,4.3,4.3,0,0,0,4.08-2.68H181a5.94,5.94,0,1,1-5.62-7.95,6.06,6.06,0,0,1,6,6.09c0,.15,0,.27,0,.42m-5.93-5.2A4.5,4.5,0,0,0,171,47.7h8.88a4.52,4.52,0,0,0-4.45-3.89"/><path class="cls-1" d="M185,47.52v6.66h-1.46V42.79H185v1.64h0c.63-1.46,1.73-1.83,3.2-1.93V44A3.27,3.27,0,0,0,185,47.52"/><path class="cls-1" d="M189.77,41.29l-.69-1.21,4.14-2.27.66,1.25Zm0,1.5h1.46V54.17h-1.46Z"/><path class="cls-1" d="M204.08,54.17v-2h0a5.22,5.22,0,0,1-4.43,2.27,6,6,0,1,1,0-11.94A5.09,5.09,0,0,1,204,44.79h0v-2h1.46V54.17Zm-4.47-10.36a4.66,4.66,0,1,0,4.56,4.68,4.61,4.61,0,0,0-4.56-4.68"/><polygon class="cls-1" points="108.37 73.91 108.37 58.52 116.79 58.52 116.79 59.91 109.91 59.91 109.91 65.44 116.56 65.44 116.56 66.84 109.91 66.84 109.91 72.52 116.79 72.52 116.79 73.91 108.37 73.91"/><path class="cls-1" d="M128,73.91V67.65a4.34,4.34,0,0,0-1.08-3.12,3.62,3.62,0,0,0-5,0,4.2,4.2,0,0,0-1.06,3v6.36h-1.46V62.53h1.46V64h0a4.13,4.13,0,0,1,3.49-1.75c3.27,0,5,2.27,5,5.41v6.26Z"/><path class="cls-1" d="M143.4,68.75H133a4.51,4.51,0,0,0,4.41,4.12,4.3,4.3,0,0,0,4.08-2.68h1.54a5.94,5.94,0,1,1-5.62-7.95,6.06,6.06,0,0,1,6,6.09c0,.15,0,.27,0,.42m-5.93-5.2A4.5,4.5,0,0,0,133,67.44h8.88a4.52,4.52,0,0,0-4.45-3.89"/><path class="cls-1" d="M147.08,67.25v6.66h-1.46V62.53h1.46v1.64h0c.62-1.46,1.73-1.83,3.2-1.93v1.54a3.27,3.27,0,0,0-3.24,3.47"/><path class="cls-1" d="M162,76.28a5.7,5.7,0,0,1-4.51,2.1,5.76,5.76,0,0,1-5.82-4.18h1.54a4.39,4.39,0,0,0,4.26,2.87,3.91,3.91,0,0,0,4.12-4.24v-1h0a4.89,4.89,0,0,1-4.39,2.35,5.9,5.9,0,0,1-5.95-5.91,6,6,0,0,1,5.95-6,5.1,5.1,0,0,1,4.39,2.33h0v-2H163v9.59a6.51,6.51,0,0,1-1,4.16m-4.85-12.73a4.66,4.66,0,1,0,4.51,4.68,4.58,4.58,0,0,0-4.51-4.68"/><path class="cls-1" d="M177,68.75H166.68a4.51,4.51,0,0,0,4.41,4.12,4.3,4.3,0,0,0,4.08-2.68h1.54a5.94,5.94,0,1,1-5.62-7.95,6.06,6.06,0,0,1,6,6.1c0,.15,0,.27,0,.42m-5.93-5.2a4.5,4.5,0,0,0-4.43,3.89h8.88a4.52,4.52,0,0,0-4.45-3.89M169.57,61l-.69-1.21L173,57.56l.67,1.25Z"/><polygon class="cls-1" points="182.05 63.84 182.05 73.91 180.59 73.91 180.59 63.84 178.2 63.84 178.2 62.53 180.59 62.53 180.59 58.52 182.05 58.52 182.05 62.53 184.78 62.53 184.78 63.84 182.05 63.84"/><path class="cls-1" d="M186.32,58.52h1.46v2.62h-1.46Zm0,4h1.46V73.91h-1.46Z"/><path class="cls-1" d="M196.09,74.18A6,6,0,0,1,190,68.23a6.06,6.06,0,0,1,6.12-6A6,6,0,0,1,201.75,66h-1.6a4.49,4.49,0,0,0-4-2.41,4.66,4.66,0,1,0,0,9.32,4.39,4.39,0,0,0,4-2.31h1.6a6,6,0,0,1-5.66,3.62"/><path class="cls-1" d="M214,73.91v-2h0a5.22,5.22,0,0,1-4.43,2.27,6,6,0,1,1,0-11.94A5.09,5.09,0,0,1,214,64.53h0v-2h1.46V73.91Zm-4.47-10.36a4.66,4.66,0,1,0,4.56,4.68,4.61,4.61,0,0,0-4.56-4.68"/><rect class="cls-1" x="98.58" y="18.38" width="0.66" height="56.8"/><path class="cls-1" d="M27.29,76.17H19.5a43.6,43.6,0,0,0,2.08-13.93c0-16.17-4.28-17.13-4.28-33.23,0-8.33,2.19-13,2.19-13h7.79a37.33,37.33,0,0,0-2.41,13.82c0,12,4.71,18.42,4.71,33.56a34.24,34.24,0,0,1-2.3,12.83"/></svg>