<?xml version="1.0" encoding="utf-8"?>
<!-- Generator: Adobe Illustrator 24.0.3, SVG Export Plug-In . SVG Version: 6.00 Build 0)  -->
<svg version="1.1" id="Layer_1" xmlns="http://www.w3.org/2000/svg" xmlns:xlink="http://www.w3.org/1999/xlink" x="0px" y="0px"
	 viewBox="0 0 300 300" style="enable-background:new 0 0 300 300;" xml:space="preserve">
<style type="text/css">
	.st0{fill:#0B63CD;}
</style>
<g>
	<path class="st0" d="M149.7,299.2c-41.3,0-82.6,0-123.8,0c-16.9,0-25.4-8.5-25.4-25.5c0-82.4,0-164.8,0-247.1
		C0.5,9.2,8.9,0.8,26.4,0.8c82.6,0,165.1,0,247.7,0c16.9,0,25.4,8.5,25.4,25.5c0,82.4,0,164.8,0,247.1c0,17.3-8.4,25.7-25.9,25.7
		C232.3,299.2,191,299.2,149.7,299.2z M66.6,89.2c5.1,0,10.1-0.1,15.2,0c4.8,0.1,7.3-2.1,7.3-7c0-10.1,0-20.2,0-30.3
		c0-5-2.6-6.9-7.3-6.9c-9.9,0.1-19.8,0.1-29.7,0c-4.9,0-7.3,2.1-7.3,7c0,10.1,0,20.2,0,30.3c0,5,2.6,7,7.3,6.9
		C57,89.2,61.8,89.2,66.6,89.2z M144.5,67.4c0-4.8-0.1-9.7,0-14.5c0.2-5.5-2.1-8.1-7.7-8c-9.7,0.2-19.3,0.1-29,0
		c-5.2-0.1-7.7,2.1-7.6,7.4c0.1,9.9,0.1,19.8,0,29.6c0,4.8,2.1,7.3,7,7.2c10.1,0,20.3,0,30.4,0c5,0,7-2.6,6.9-7.3
		C144.4,77.1,144.5,72.3,144.5,67.4z M178,45c-4.8,0-9.7,0.1-14.5,0c-5.5-0.2-8.1,2-8,7.7c0.2,9.7,0.1,19.3,0,29
		c-0.1,5.1,2,7.7,7.3,7.7c9.9-0.1,19.8-0.1,29.7,0c4.8,0,7.3-2,7.3-7c0-10.1,0-20.2,0-30.3c0-5-2.5-7-7.3-7
		C187.7,45.1,182.9,45,178,45z M89.1,122.8c0-5.1-0.1-10.1,0-15.2c0.1-5.3-2.4-7.5-7.6-7.4c-9.9,0.1-19.8,0.1-29.7,0
		c-4.9,0-7.1,2.4-7.1,7.2c0.1,9.9,0.1,19.8,0,29.6c-0.1,5.3,2.4,7.5,7.6,7.4c9.9-0.1,19.8-0.1,29.7,0c4.9,0,7.1-2.4,7-7.2
		C89,132.5,89.1,127.6,89.1,122.8z M122.7,100.3c-5.1,0-10.1,0.1-15.2,0c-5.3-0.1-7.5,2.4-7.4,7.6c0.1,9.9,0.1,19.8,0,29.6
		c0,4.9,2.4,7.1,7.2,7c9.9-0.1,19.8-0.1,29.7,0c5.3,0.1,7.5-2.4,7.4-7.6c-0.1-9.9-0.1-19.8,0-29.6c0-4.9-2.4-7.1-7.2-7
		C132.4,100.3,127.6,100.3,122.7,100.3z M255.2,122.6c0-5.1-0.1-10.1,0-15.2c0.1-4.9-2.2-7.2-7.1-7.2c-9.9,0-19.8,0.1-29.7,0
		c-5.2-0.1-7.6,2.2-7.6,7.4c0.1,9.9,0.1,19.8,0,29.6c0,4.9,2.2,7.2,7.1,7.2c9.9,0,19.8-0.1,29.7,0c5.2,0.1,7.7-2.2,7.6-7.4
		C255.1,132.3,255.2,127.4,255.2,122.6z M67.2,155.5c-5.1,0-10.1,0.1-15.2,0c-4.9-0.1-7.2,2.2-7.2,7.1c0,9.9,0.1,19.8,0,29.6
		c-0.1,5.2,2.2,7.6,7.4,7.5c9.9-0.1,19.8-0.1,29.7,0c4.9,0,7.2-2.2,7.2-7.1c-0.1-10.1,0-20.2,0-30.3c0-4.5-2.2-6.8-6.7-6.8
		C77.3,155.5,72.3,155.5,67.2,155.5z M177.5,199.7c5.1,0,10.1-0.1,15.2,0c4.9,0.1,7.2-2.2,7.2-7.1c-0.1-10.1,0-20.2,0-30.3
		c0-4.5-2.2-6.8-6.7-6.8c-10.1,0-20.3,0.1-30.4,0c-4.9,0-7.2,2.2-7.2,7.1c0.1,10.1,0,20.2,0,30.3c0,4.5,2.2,6.8,6.7,6.8
		C167.3,199.7,172.4,199.7,177.5,199.7z M210.9,177.1c0,5.3,0,10.6,0,15.9c0,4.6,2.3,6.8,6.8,6.8c10.4,0,20.7,0,31.1,0
		c4.2,0,6.4-2.2,6.4-6.4c0-10.3,0-20.7,0-31c0-4.6-2.3-6.8-6.8-6.8c-10.4,0-20.7,0-31.1,0c-4.2,0-6.4,2.2-6.4,6.4
		C210.9,167,210.9,172,210.9,177.1z M122,255c5.1,0,10.1-0.1,15.2,0c4.9,0.1,7.3-2.1,7.2-7c0-10.1,0-20.2,0-30.3
		c0-5-2.6-6.9-7.4-6.9c-9.9,0.1-19.8,0.1-29.7,0c-4.9,0-7.3,2.1-7.2,7c0,10.1,0,20.2,0,30.3c0,5,2.6,7,7.4,6.9
		C112.4,254.9,117.2,255,122,255z M178,210.8c-4.8,0-9.7,0.1-14.5,0c-5.5-0.2-8.1,2-8,7.7c0.2,9.7,0.1,19.3,0,29
		c-0.1,5.1,2,7.7,7.3,7.6c9.9-0.1,19.8-0.1,29.7,0c4.8,0,7.3-2,7.3-7c0-10.1,0-20.2,0-30.3c0-5-2.5-7-7.3-6.9
		C187.7,210.8,182.8,210.8,178,210.8z M232.8,255c5.1,0,10.1-0.1,15.2,0c4.9,0.1,7.2-2.2,7.2-7.1c-0.1-9.9-0.1-19.8,0-29.6
		c0.1-5.2-2.2-7.6-7.4-7.5c-9.9,0.1-19.8,0.1-29.7,0c-4.9,0-7.2,2.2-7.2,7.1c0,10.1,0,20.2,0,30.3c0,4.5,2.2,6.8,6.7,6.8
		C222.7,255,227.7,255,232.8,255z"/>
</g>
</svg>
