<?xml version="1.0" encoding="utf-8"?>
<!-- Generator: Adobe Illustrator 26.2.1, SVG Export Plug-In . SVG Version: 6.00 Build 0)  -->
<svg version="1.1" id="Layer_1" xmlns="http://www.w3.org/2000/svg" xmlns:xlink="http://www.w3.org/1999/xlink" x="0px" y="0px"
	 viewBox="0 0 64 64" style="enable-background:new 0 0 64 64;" xml:space="preserve">
<style type="text/css">
	.st0{fill:#D6F622;}
	.st1{fill:#020A47;}
	.st2{fill:#9394FF;}
	.st3{fill:#5EE4E4;}
	.st4{fill:#D30971;}
	.st5{fill-rule:evenodd;clip-rule:evenodd;fill:#5EE4E4;}
	.st6{fill-rule:evenodd;clip-rule:evenodd;fill:#020A47;}
	.st7{fill:none;stroke:#020A47;stroke-width:2.4;stroke-miterlimit:10;}
	.st8{fill:#FFFF00;}
</style>
<g>
	<ellipse class="st0" cx="18.01983" cy="18.02014" rx="2.06366" ry="2.06366"/>
	<ellipse class="st0" cx="11.79183" cy="32.00014" rx="2.06412" ry="2.06413"/>
	<ellipse class="st0" cx="52.20783" cy="32.00014" rx="2.06414" ry="2.06414"/>
	<circle class="st0" cx="45.97983" cy="18.02014" r="2.06362"/>
	<ellipse class="st0" cx="45.97983" cy="45.99214" rx="2.06362" ry="2.06362"/>
	<circle class="st0" cx="18.01983" cy="45.98014" r="2.06366"/>
	<circle class="st0" cx="31.99983" cy="51.59613" r="2.06413"/>
	<circle class="st0" cx="31.99983" cy="12.40414" r="2.06413"/>
	<path class="st1" d="M52.20752,27.53564c-2.0426,0-3.75098,1.38782-4.27917,3.26465h-3.18591
		c-0.23999-2.56763-1.24139-4.91479-2.77545-6.81805l2.00037-2.00037c0.6076,0.31024,1.28503,0.50201,2.01263,0.50201
		c2.46094,0,4.46387-2.00293,4.46387-4.46387s-2.00293-4.46387-4.46387-4.46387s-4.46387,2.00293-4.46387,4.46387
		c0,0.86011,0.2561,1.65686,0.67944,2.33911l-1.90356,1.90356c-1.94989-1.66302-4.39923-2.75342-7.09229-3.00513v-2.57361
		c1.87683-0.5282,3.26465-2.23676,3.26465-4.28015c0-2.46094-2.00293-4.46387-4.46484-4.46387
		c-2.46094,0-4.46387,2.00293-4.46387,4.46387c0,2.04321,1.38757,3.75171,3.26367,4.28003v2.57373
		c-2.63055,0.24585-5.03296,1.28693-6.96027,2.88513l-1.94598-1.94653c0.36505-0.64673,0.59082-1.3822,0.59082-2.17615
		c0-2.46094-2.00293-4.46387-4.46387-4.46387c-2.46191,0-4.46484,2.00293-4.46484,4.46387s2.00293,4.46387,4.46484,4.46387
		c0.79376,0,1.52905-0.22565,2.17566-0.59058l1.94611,1.94666c-1.59827,1.92731-2.63928,4.32977-2.88519,6.96033h-3.18494
		c-0.5282-1.87683-2.23676-3.26465-4.28015-3.26465c-2.46094,0-4.46387,2.00293-4.46387,4.46484
		c0,2.46094,2.00293,4.46387,4.46387,4.46387c2.04321,0,3.75171-1.38757,4.28003-3.26367h3.18506
		c0.24585,2.63055,1.28699,5.03296,2.88519,6.96027l-1.94586,1.94586c-0.64667-0.36499-1.38202-0.5907-2.1759-0.5907
		c-2.46191,0-4.46484,2.00293-4.46484,4.46387s2.00293,4.46387,4.46484,4.46387c2.46094,0,4.46387-2.00293,4.46387-4.46387
		c0-0.79388-0.22571-1.52924-0.5907-2.1759l1.94586-1.94586c1.92731,1.59821,4.32971,2.63934,6.96027,2.88519v2.57373
		c-1.8761,0.52832-3.26367,2.23663-3.26367,4.27905c0,2.46094,2.00293,4.46387,4.46387,4.46387
		c2.46191,0,4.46484-2.00293,4.46484-4.46387c0-2.0426-1.38782-3.75104-3.26465-4.27924v-2.57355
		c2.69312-0.25171,5.1424-1.34216,7.09229-3.00519l1.90753,1.90698c-0.42603,0.68378-0.68341,1.48346-0.68341,2.3465
		c0,2.46191,2.00293,4.46484,4.46387,4.46484s4.46387-2.00293,4.46387-4.46484c0-2.46094-2.00293-4.46387-4.46387-4.46387
		c-0.72467,0-1.39954,0.19006-2.00531,0.49799l-2.00763-2.00708c1.53406-1.90326,2.5354-4.25043,2.77539-6.81805h3.18604
		c0.52832,1.8761,2.23663,3.26367,4.27905,3.26367c2.46191,0,4.46484-2.00293,4.46484-4.46387
		C56.67236,29.53857,54.66943,27.53564,52.20752,27.53564z M11.7915,34.06396c-1.1377,0-2.06348-0.92578-2.06348-2.06348
		c0-1.13867,0.92578-2.06445,2.06348-2.06445c1.13867,0,2.06445,0.92578,2.06445,2.06445
		C13.85596,33.13818,12.93018,34.06396,11.7915,34.06396z M45.97998,15.95654c1.1377,0,2.06348,0.92578,2.06348,2.06348
		s-0.92578,2.06348-2.06348,2.06348s-2.06348-0.92578-2.06348-2.06348S44.84229,15.95654,45.97998,15.95654z M29.93604,12.40381
		c0-1.1377,0.92578-2.06348,2.06348-2.06348c1.13867,0,2.06445,0.92578,2.06445,2.06348c0,1.13867-0.92578,2.06445-2.06445,2.06445
		C30.86182,14.46826,29.93604,13.54248,29.93604,12.40381z M15.95557,18.02002c0-1.1377,0.92578-2.06348,2.06445-2.06348
		c1.1377,0,2.06348,0.92578,2.06348,2.06348s-0.92578,2.06348-2.06348,2.06348
		C16.88135,20.0835,15.95557,19.15771,15.95557,18.02002z M18.02002,48.04346c-1.13867,0-2.06445-0.92578-2.06445-2.06348
		s0.92578-2.06348,2.06445-2.06348c1.1377,0,2.06348,0.92578,2.06348,2.06348S19.15771,48.04346,18.02002,48.04346z
		 M34.06396,51.59619c0,1.1377-0.92578,2.06348-2.06445,2.06348c-1.1377,0-2.06348-0.92578-2.06348-2.06348
		s0.92578-2.06348,2.06348-2.06348C33.13818,49.53271,34.06396,50.4585,34.06396,51.59619z M31.99951,40.60498
		c-4.74414,0-8.60449-3.86035-8.60449-8.60449s3.86035-8.60449,8.60449-8.60449c0.77783,0,1.5282,0.1131,2.24536,0.3075
		l-0.60614,1.41614c-0.52716-0.12561-1.07416-0.19922-1.63922-0.19922c-3.9043,0-7.08008,3.17578-7.08008,7.08008
		s3.17578,7.08008,7.08008,7.08008s7.08008-3.17578,7.08008-7.08008c0-2.48596-1.29034-4.67242-3.23364-5.93591l0.60498-1.41345
		c2.4845,1.51068,4.15308,4.23547,4.15308,7.34937C40.604,36.74463,36.74365,40.60498,31.99951,40.60498z M31.88019,29.22839
		c-1.47876,0.06403-2.66486,1.27783-2.66486,2.77209c0,1.53516,1.24902,2.78418,2.78418,2.78418s2.78418-1.24902,2.78418-2.78418
		c0-0.70062-0.26892-1.33405-0.69769-1.82397l0.78784-1.84082c1.09064,0.8576,1.80536,2.17322,1.80536,3.66479
		c0,2.58008-2.09961,4.67969-4.67969,4.67969s-4.67969-2.09961-4.67969-4.67969s2.09961-4.67969,4.67969-4.67969
		c0.22882,0,0.44806,0.03564,0.66815,0.06757L31.88019,29.22839z M48.04346,45.9917c0,1.13867-0.92578,2.06445-2.06348,2.06445
		s-2.06348-0.92578-2.06348-2.06445c0-1.1377,0.92578-2.06348,2.06348-2.06348S48.04346,44.854,48.04346,45.9917z
		 M52.20752,34.06396c-1.1377,0-2.06348-0.92578-2.06348-2.06348c0-1.13867,0.92578-2.06445,2.06348-2.06445
		c1.13867,0,2.06445,0.92578,2.06445,2.06445C54.27197,33.13818,53.34619,34.06396,52.20752,34.06396z"/>
</g>
</svg>
